<svg xmlns="http://www.w3.org/2000/svg" xmlns:svg="http://www.w3.org/2000/svg" id="svg2" width="468.842" height="251.103" version="1.1"><defs id="defs4"><marker id="Arrow2Lstart" orient="auto" refX="0" refY="0" style="overflow:visible"><path id="path2867" d="M 8.7185878,4.0337352 -2.2072895,0.01601326 8.7185884,-4.0017078 c -1.7454984,2.3720609 -1.7354408,5.6174519 -6e-7,8.035443 z" transform="matrix(1.1,0,0,1.1,-5.5,0)" style="font-size:12px;fill-rule:evenodd;stroke-width:.625;stroke-linejoin:round"/></marker><marker id="TriangleOutL" orient="auto" refX="0" refY="0" style="overflow:visible"><path id="path2811" d="m 5.77,0 -8.65,5 0,-10 8.65,5 z" transform="scale(0.8,0.8)" style="fill-rule:evenodd;stroke:#000;stroke-width:1pt;marker-start:none"/></marker><marker id="Arrow2Mend" orient="auto" refX="0" refY="0" style="overflow:visible"><path id="path2873" d="M 8.7185878,4.0337352 -2.2072895,0.01601326 8.7185884,-4.0017078 c -1.7454984,2.3720609 -1.7354408,5.6174519 -6e-7,8.035443 z" transform="matrix(-0.6,0,0,-0.6,3,0)" style="font-size:12px;fill-rule:evenodd;stroke-width:.625;stroke-linejoin:round"/></marker><marker id="Arrow2Lend" orient="auto" refX="0" refY="0" style="overflow:visible"><path id="path2876" d="M 8.7185878,4.0337352 -2.2072895,0.01601326 8.7185884,-4.0017078 c -1.7454984,2.3720609 -1.7354408,5.6174519 -6e-7,8.035443 z" transform="matrix(-1.1,0,0,-1.1,5.5,0)" style="font-size:12px;fill-rule:evenodd;stroke-width:.625;stroke-linejoin:round"/></marker><marker id="Arrow1Lstart" orient="auto" refX="0" refY="0" style="overflow:visible"><path id="path2884" d="M 0,0 5,-5 -12.5,0 5,5 0,0 z" transform="scale(0.8,0.8)" style="fill-rule:evenodd;stroke:#000;stroke-width:1pt;marker-start:none"/></marker></defs><metadata id="metadata7"/><g id="layer1" transform="translate(-7.7389852,-22.113993)"><g id="g3296"><path id="path9650" d="m 187.96082,182.95057 c -2.00154,-34.95365 24.71142,-64.91175 59.66507,-66.91329 34.95365,-2.00154 64.91175,24.71142 66.91329,59.66507 0.15419,2.69264 0.13638,5.39238 -0.0533,8.08276" transform="translate(23.64285,-52.71429)" style="fill:#fff;fill-opacity:1;fill-rule:nonzero;stroke:#000;stroke-width:1;stroke-linecap:butt;stroke-linejoin:miter;stroke-miterlimit:4;stroke-opacity:1;stroke-dasharray:none;stroke-dashoffset:0"/><path id="path11204" d="m 187.96082,182.95057 c -2.00154,-34.95365 24.71142,-64.91175 59.66507,-66.91329 34.95365,-2.00154 64.91175,24.71142 66.91329,59.66507 0.15419,2.69264 0.13638,5.39238 -0.0533,8.08276" transform="matrix(1,0,0,0.771771,23.24744,-10.65144)" style="fill:#fff;fill-opacity:1;fill-rule:nonzero;stroke:#000;stroke-width:1.13829756;stroke-linecap:butt;stroke-linejoin:miter;stroke-miterlimit:4;stroke-opacity:1;stroke-dasharray:none;stroke-dashoffset:0"/><path id="path11206" d="m 187.96082,182.95057 c -2.00154,-34.95365 24.71142,-64.91175 59.66507,-66.91329 34.95365,-2.00154 64.91175,24.71142 66.91329,59.66507 0.15419,2.69264 0.13638,5.39238 -0.0533,8.08276" transform="matrix(1,0,0,0.559529,23.96172,27.40478)" style="fill:#fff;fill-opacity:1;fill-rule:nonzero;stroke:#000;stroke-width:1.33686852;stroke-linecap:butt;stroke-linejoin:miter;stroke-miterlimit:4;stroke-opacity:1;stroke-dasharray:none;stroke-dashoffset:0"/><path id="path11208" d="m 187.96082,182.95057 c -2.00154,-34.95365 24.71142,-64.91175 59.66507,-66.91329 34.95365,-2.00154 64.91175,24.71142 66.91329,59.66507 0.15419,2.69264 0.13638,5.39238 -0.0533,8.08276" transform="matrix(1,0,0,0.440808,23.96172,49.83901)" style="fill:#fff;fill-opacity:1;fill-rule:nonzero;stroke:#000;stroke-width:1.50617445;stroke-linecap:butt;stroke-linejoin:miter;stroke-miterlimit:4;stroke-opacity:1;stroke-dasharray:none;stroke-dashoffset:0"/></g><g id="g3286"><path style="fill:#fff;fill-opacity:1;fill-rule:nonzero;stroke:#000;stroke-width:1;stroke-linecap:butt;stroke-linejoin:miter;stroke-miterlimit:4;stroke-opacity:1;stroke-dasharray:none;stroke-dashoffset:0" id="path11247" d="m 187.96082,182.95057 c -2.00154,-34.95365 24.71142,-64.91175 59.66507,-66.91329 34.95365,-2.00154 64.91175,24.71142 66.91329,59.66507 0.15419,2.69264 0.13638,5.39238 -0.0533,8.08276" transform="matrix(-1,0,0,-1,526.3634,333.8455)"/><path style="fill:#fff;fill-opacity:1;fill-rule:nonzero;stroke:#000;stroke-width:1.13829756;stroke-linecap:butt;stroke-linejoin:miter;stroke-miterlimit:4;stroke-opacity:1;stroke-dasharray:none;stroke-dashoffset:0" id="path11249" d="m 187.96082,182.95057 c -2.00154,-34.95365 24.71142,-64.91175 59.66507,-66.91329 34.95365,-2.00154 64.91175,24.71142 66.91329,59.66507 0.15419,2.69264 0.13638,5.39238 -0.0533,8.08276" transform="matrix(-1,0,0,-0.771771,526.7588,291.7827)"/><path style="fill:#fff;fill-opacity:1;fill-rule:nonzero;stroke:#000;stroke-width:1.33686852;stroke-linecap:butt;stroke-linejoin:miter;stroke-miterlimit:4;stroke-opacity:1;stroke-dasharray:none;stroke-dashoffset:0" id="path11251" d="m 187.96082,182.95057 c -2.00154,-34.95365 24.71142,-64.91175 59.66507,-66.91329 34.95365,-2.00154 64.91175,24.71142 66.91329,59.66507 0.15419,2.69264 0.13638,5.39238 -0.0533,8.08276" transform="matrix(-1,0,0,-0.559529,526.0445,253.7265)"/><path style="fill:#fff;fill-opacity:1;fill-rule:nonzero;stroke:#000;stroke-width:1.50617445;stroke-linecap:butt;stroke-linejoin:miter;stroke-miterlimit:4;stroke-opacity:1;stroke-dasharray:none;stroke-dashoffset:0" id="path11253" d="m 187.96082,182.95057 c -2.00154,-34.95365 24.71142,-64.91175 59.66507,-66.91329 34.95365,-2.00154 64.91175,24.71142 66.91329,59.66507 0.15419,2.69264 0.13638,5.39238 -0.0533,8.08276" transform="matrix(-1,0,0,-0.440808,526.0445,231.2922)"/></g><path id="path4016" d="m 126.80345,148.63699 c 0.57803,-17.05186 14.86988,-30.40653 31.92174,-29.8285 17.05186,0.57803 30.40654,14.86987 29.82851,31.92173 -0.0127,0.37573 -0.0323,0.75119 -0.0588,1.12619 l -30.81635,-2.1728 z" transform="translate(22.4418,-22.05204)" style="fill:#fff;fill-opacity:1;fill-rule:nonzero;stroke:#000;stroke-width:1;stroke-linecap:butt;stroke-linejoin:miter;stroke-miterlimit:4;stroke-opacity:1;stroke-dasharray:none;stroke-dashoffset:0"/><path style="fill:#fff;fill-opacity:1;fill-rule:nonzero;stroke:#000;stroke-width:1.19868577;stroke-linecap:butt;stroke-linejoin:miter;stroke-miterlimit:4;stroke-opacity:1;stroke-dasharray:none;stroke-dashoffset:0" id="path11210" d="m 126.80345,148.63699 c 0.57803,-17.05186 14.86988,-30.40653 31.92174,-29.8285 17.05186,0.57803 30.40654,14.86987 29.82851,31.92173 -0.0127,0.37573 -0.0323,0.75119 -0.0588,1.12619 l -30.81635,-2.1728 z" transform="matrix(1,0,0,0.695968,22.4418,24.26917)"/><path id="path11212" d="m 126.80345,148.63699 c 0.57803,-17.05186 14.86988,-30.40653 31.92174,-29.8285 17.05186,0.57803 30.40654,14.86987 29.82851,31.92173 -0.0127,0.37573 -0.0323,0.75119 -0.0588,1.12619 l -30.81635,-2.1728 z" transform="matrix(1,0,0,0.435391,22.4418,63.99558)" style="fill:#fff;fill-opacity:1;fill-rule:nonzero;stroke:#000;stroke-width:1.51551509;stroke-linecap:butt;stroke-linejoin:miter;stroke-miterlimit:4;stroke-opacity:1;stroke-dasharray:none;stroke-dashoffset:0"/><g id="g3308"><path id="path11233" d="m 126.80345,148.63699 c 0.57803,-17.05186 14.86988,-30.40653 31.92174,-29.8285 17.05186,0.57803 30.40654,14.86987 29.82851,31.92173 -0.0127,0.37573 -0.0323,0.75119 -0.0588,1.12619 l -30.81635,-2.1728 z" transform="matrix(-1,0,0,-1,337.1027,303.3757)" style="fill:#fff;fill-opacity:1;fill-rule:nonzero;stroke:#000;stroke-width:1;stroke-linecap:butt;stroke-linejoin:miter;stroke-miterlimit:4;stroke-opacity:1;stroke-dasharray:none;stroke-dashoffset:0"/><path style="fill:#fff;fill-opacity:1;fill-rule:nonzero;stroke:#000;stroke-width:1.19868577;stroke-linecap:butt;stroke-linejoin:miter;stroke-miterlimit:4;stroke-opacity:1;stroke-dasharray:none;stroke-dashoffset:0" id="path11235" d="m 126.80345,148.63699 c 0.57803,-17.05186 14.86988,-30.40653 31.92174,-29.8285 17.05186,0.57803 30.40654,14.86987 29.82851,31.92173 -0.0127,0.37573 -0.0323,0.75119 -0.0588,1.12619 l -30.81635,-2.1728 z" transform="matrix(-1,0,0,-0.695968,337.1027,257.0545)"/><path id="path11237" d="m 126.80345,148.63699 c 0.57803,-17.05186 14.86988,-30.40653 31.92174,-29.8285 17.05186,0.57803 30.40654,14.86987 29.82851,31.92173 -0.0127,0.37573 -0.0323,0.75119 -0.0588,1.12619 l -30.81635,-2.1728 z" transform="matrix(-1,0,0,-0.435391,337.1027,217.3281)" style="fill:#fff;fill-opacity:1;fill-rule:nonzero;stroke:#000;stroke-width:1.51551509;stroke-linecap:butt;stroke-linejoin:miter;stroke-miterlimit:4;stroke-opacity:1;stroke-dasharray:none;stroke-dashoffset:0"/></g><g id="g2414"><g id="g3756" transform="translate(-112.3503,77.19545)"><rect style="fill:#fff;fill-opacity:1;fill-rule:nonzero;stroke:#000;stroke-width:2;stroke-linecap:butt;stroke-linejoin:miter;stroke-miterlimit:4;stroke-opacity:1;stroke-dasharray:none;stroke-dashoffset:0" id="rect3724" width="63.072" height="26.078" x="198.274" y="49.879"/><g id="g3726" transform="translate(81.77797,-23.36376)"><path id="path3728" d="m 118.69292,84.636044 c 1.51523,0 16.66752,-5.555839 16.66752,-5.555839" style="fill:none;stroke:#000;stroke-width:.71200001;stroke-linecap:butt;stroke-linejoin:miter;stroke-miterlimit:4;stroke-opacity:1;stroke-dasharray:none;marker-end:url(#Arrow2Lend)"/><path style="fill:none;stroke:#000;stroke-width:2;stroke-linecap:butt;stroke-linejoin:miter;stroke-miterlimit:4;stroke-opacity:1;stroke-dasharray:none;marker-end:none" id="path3730" d="m 118.69292,84.636044 c 1.51523,0 16.66752,-5.555839 16.66752,-5.555839"/></g><g id="g3732" transform="matrix(0.88433,0.573686,-0.544236,0.838932,148.0924,-72.44582)"><path id="path3734" d="m 118.69292,84.636044 c 1.51523,0 16.66752,-5.555839 16.66752,-5.555839" style="fill:none;stroke:#000;stroke-width:.71200001;stroke-linecap:butt;stroke-linejoin:miter;stroke-miterlimit:4;stroke-opacity:1;stroke-dasharray:none;marker-end:url(#Arrow2Lend)"/><path style="fill:none;stroke:#000;stroke-width:2;stroke-linecap:butt;stroke-linejoin:miter;stroke-miterlimit:4;stroke-opacity:1;stroke-dasharray:none;marker-end:none" id="path3736" d="m 118.69292,84.636044 c 1.51523,0 16.66752,-5.555839 16.66752,-5.555839"/></g><g id="g3738" transform="matrix(0.950884,0.454945,-0.431591,0.902069,143.5493,-70.61212)"><path id="path3740" d="m 118.69292,84.636044 c 1.51523,0 16.66752,-5.555839 16.66752,-5.555839" style="fill:none;stroke:#000;stroke-width:.71200001;stroke-linecap:butt;stroke-linejoin:miter;stroke-miterlimit:4;stroke-opacity:1;stroke-dasharray:none;marker-end:url(#Arrow2Lend)"/><path style="fill:none;stroke:#000;stroke-width:2;stroke-linecap:butt;stroke-linejoin:miter;stroke-miterlimit:4;stroke-opacity:1;stroke-dasharray:none;marker-end:none" id="path3742" d="m 118.69292,84.636044 c 1.51523,0 16.66752,-5.555839 16.66752,-5.555839"/></g><g id="g3744" transform="matrix(1.027431,0.235669,-0.223572,0.974687,126.8992,-41.12643)"><path id="path3746" d="m 118.69292,84.636044 c 1.51523,0 16.66752,-5.555839 16.66752,-5.555839" style="fill:none;stroke:#000;stroke-width:.71200001;stroke-linecap:butt;stroke-linejoin:miter;stroke-miterlimit:4;stroke-opacity:1;stroke-dasharray:none;marker-end:url(#Arrow2Lend)"/><path style="fill:none;stroke:#000;stroke-width:2;stroke-linecap:butt;stroke-linejoin:miter;stroke-miterlimit:4;stroke-opacity:1;stroke-dasharray:none;marker-end:none" id="path3748" d="m 118.69292,84.636044 c 1.51523,0 16.66752,-5.555839 16.66752,-5.555839"/></g><g id="g3750" transform="matrix(1.039904,0.172494,-0.16364,0.98652,125.4597,-46.19204)"><path id="path3752" d="m 118.69292,84.636044 c 1.51523,0 16.66752,-5.555839 16.66752,-5.555839" style="fill:none;stroke:#000;stroke-width:.71200001;stroke-linecap:butt;stroke-linejoin:miter;stroke-miterlimit:4;stroke-opacity:1;stroke-dasharray:none;marker-end:url(#Arrow2Lend)"/><path style="fill:none;stroke:#000;stroke-width:2;stroke-linecap:butt;stroke-linejoin:miter;stroke-miterlimit:4;stroke-opacity:1;stroke-dasharray:none;marker-end:none" id="path3754" d="m 118.69292,84.636044 c 1.51523,0 16.66752,-5.555839 16.66752,-5.555839"/></g></g><g id="g3806" transform="matrix(-1,0,0,-1,410.1976,203.031)"><rect id="rect3808" width="63.072" height="26.078" x="198.274" y="49.879" style="fill:#fff;fill-opacity:1;fill-rule:nonzero;stroke:#000;stroke-width:2;stroke-linecap:butt;stroke-linejoin:miter;stroke-miterlimit:4;stroke-opacity:1;stroke-dasharray:none;stroke-dashoffset:0"/><g id="g3810" transform="translate(81.77797,-23.36376)"><path style="fill:none;stroke:#000;stroke-width:.71200001;stroke-linecap:butt;stroke-linejoin:miter;stroke-miterlimit:4;stroke-opacity:1;stroke-dasharray:none;marker-end:url(#Arrow2Lend)" id="path3812" d="m 118.69292,84.636044 c 1.51523,0 16.66752,-5.555839 16.66752,-5.555839"/><path id="path3814" d="m 118.69292,84.636044 c 1.51523,0 16.66752,-5.555839 16.66752,-5.555839" style="fill:none;stroke:#000;stroke-width:2;stroke-linecap:butt;stroke-linejoin:miter;stroke-miterlimit:4;stroke-opacity:1;stroke-dasharray:none;marker-end:none"/></g><g id="g3816" transform="matrix(0.88433,0.573686,-0.544236,0.838932,148.0924,-72.44582)"><path style="fill:none;stroke:#000;stroke-width:.71200001;stroke-linecap:butt;stroke-linejoin:miter;stroke-miterlimit:4;stroke-opacity:1;stroke-dasharray:none;marker-end:url(#Arrow2Lend)" id="path3818" d="m 118.69292,84.636044 c 1.51523,0 16.66752,-5.555839 16.66752,-5.555839"/><path id="path3820" d="m 118.69292,84.636044 c 1.51523,0 16.66752,-5.555839 16.66752,-5.555839" style="fill:none;stroke:#000;stroke-width:2;stroke-linecap:butt;stroke-linejoin:miter;stroke-miterlimit:4;stroke-opacity:1;stroke-dasharray:none;marker-end:none"/></g><g id="g3822" transform="matrix(0.950884,0.454945,-0.431591,0.902069,143.5493,-70.61212)"><path style="fill:none;stroke:#000;stroke-width:.71200001;stroke-linecap:butt;stroke-linejoin:miter;stroke-miterlimit:4;stroke-opacity:1;stroke-dasharray:none;marker-end:url(#Arrow2Lend)" id="path3824" d="m 118.69292,84.636044 c 1.51523,0 16.66752,-5.555839 16.66752,-5.555839"/><path id="path3826" d="m 118.69292,84.636044 c 1.51523,0 16.66752,-5.555839 16.66752,-5.555839" style="fill:none;stroke:#000;stroke-width:2;stroke-linecap:butt;stroke-linejoin:miter;stroke-miterlimit:4;stroke-opacity:1;stroke-dasharray:none;marker-end:none"/></g><g id="g3828" transform="matrix(1.027431,0.235669,-0.223572,0.974687,126.8992,-41.12643)"><path style="fill:none;stroke:#000;stroke-width:.71200001;stroke-linecap:butt;stroke-linejoin:miter;stroke-miterlimit:4;stroke-opacity:1;stroke-dasharray:none;marker-end:url(#Arrow2Lend)" id="path3830" d="m 118.69292,84.636044 c 1.51523,0 16.66752,-5.555839 16.66752,-5.555839"/><path id="path3832" d="m 118.69292,84.636044 c 1.51523,0 16.66752,-5.555839 16.66752,-5.555839" style="fill:none;stroke:#000;stroke-width:2;stroke-linecap:butt;stroke-linejoin:miter;stroke-miterlimit:4;stroke-opacity:1;stroke-dasharray:none;marker-end:none"/></g><g id="g3834" transform="matrix(1.039904,0.172494,-0.16364,0.98652,125.4597,-46.19204)"><path style="fill:none;stroke:#000;stroke-width:.71200001;stroke-linecap:butt;stroke-linejoin:miter;stroke-miterlimit:4;stroke-opacity:1;stroke-dasharray:none;marker-end:url(#Arrow2Lend)" id="path3836" d="m 118.69292,84.636044 c 1.51523,0 16.66752,-5.555839 16.66752,-5.555839"/><path id="path3838" d="m 118.69292,84.636044 c 1.51523,0 16.66752,-5.555839 16.66752,-5.555839" style="fill:none;stroke:#000;stroke-width:2;stroke-linecap:butt;stroke-linejoin:miter;stroke-miterlimit:4;stroke-opacity:1;stroke-dasharray:none;marker-end:none"/></g></g><g id="g3840" transform="translate(13.64973,77.19545)"><rect style="fill:#fff;fill-opacity:1;fill-rule:nonzero;stroke:#000;stroke-width:2;stroke-linecap:butt;stroke-linejoin:miter;stroke-miterlimit:4;stroke-opacity:1;stroke-dasharray:none;stroke-dashoffset:0" id="rect3842" width="63.072" height="26.078" x="198.274" y="49.879"/><g id="g3844" transform="translate(81.77797,-23.36376)"><path id="path3846" d="m 118.69292,84.636044 c 1.51523,0 16.66752,-5.555839 16.66752,-5.555839" style="fill:none;stroke:#000;stroke-width:.71200001;stroke-linecap:butt;stroke-linejoin:miter;stroke-miterlimit:4;stroke-opacity:1;stroke-dasharray:none;marker-end:url(#Arrow2Lend)"/><path style="fill:none;stroke:#000;stroke-width:2;stroke-linecap:butt;stroke-linejoin:miter;stroke-miterlimit:4;stroke-opacity:1;stroke-dasharray:none;marker-end:none" id="path3848" d="m 118.69292,84.636044 c 1.51523,0 16.66752,-5.555839 16.66752,-5.555839"/></g><g id="g3850" transform="matrix(0.88433,0.573686,-0.544236,0.838932,148.0924,-72.44582)"><path id="path3852" d="m 118.69292,84.636044 c 1.51523,0 16.66752,-5.555839 16.66752,-5.555839" style="fill:none;stroke:#000;stroke-width:.71200001;stroke-linecap:butt;stroke-linejoin:miter;stroke-miterlimit:4;stroke-opacity:1;stroke-dasharray:none;marker-end:url(#Arrow2Lend)"/><path style="fill:none;stroke:#000;stroke-width:2;stroke-linecap:butt;stroke-linejoin:miter;stroke-miterlimit:4;stroke-opacity:1;stroke-dasharray:none;marker-end:none" id="path3854" d="m 118.69292,84.636044 c 1.51523,0 16.66752,-5.555839 16.66752,-5.555839"/></g><g id="g3856" transform="matrix(0.950884,0.454945,-0.431591,0.902069,143.5493,-70.61212)"><path id="path3858" d="m 118.69292,84.636044 c 1.51523,0 16.66752,-5.555839 16.66752,-5.555839" style="fill:none;stroke:#000;stroke-width:.71200001;stroke-linecap:butt;stroke-linejoin:miter;stroke-miterlimit:4;stroke-opacity:1;stroke-dasharray:none;marker-end:url(#Arrow2Lend)"/><path style="fill:none;stroke:#000;stroke-width:2;stroke-linecap:butt;stroke-linejoin:miter;stroke-miterlimit:4;stroke-opacity:1;stroke-dasharray:none;marker-end:none" id="path3860" d="m 118.69292,84.636044 c 1.51523,0 16.66752,-5.555839 16.66752,-5.555839"/></g><g id="g3862" transform="matrix(1.027431,0.235669,-0.223572,0.974687,126.8992,-41.12643)"><path id="path3864" d="m 118.69292,84.636044 c 1.51523,0 16.66752,-5.555839 16.66752,-5.555839" style="fill:none;stroke:#000;stroke-width:.71200001;stroke-linecap:butt;stroke-linejoin:miter;stroke-miterlimit:4;stroke-opacity:1;stroke-dasharray:none;marker-end:url(#Arrow2Lend)"/><path style="fill:none;stroke:#000;stroke-width:2;stroke-linecap:butt;stroke-linejoin:miter;stroke-miterlimit:4;stroke-opacity:1;stroke-dasharray:none;marker-end:none" id="path3866" d="m 118.69292,84.636044 c 1.51523,0 16.66752,-5.555839 16.66752,-5.555839"/></g><g id="g3868" transform="matrix(1.039904,0.172494,-0.16364,0.98652,125.4597,-46.19204)"><path id="path3870" d="m 118.69292,84.636044 c 1.51523,0 16.66752,-5.555839 16.66752,-5.555839" style="fill:none;stroke:#000;stroke-width:.71200001;stroke-linecap:butt;stroke-linejoin:miter;stroke-miterlimit:4;stroke-opacity:1;stroke-dasharray:none;marker-end:url(#Arrow2Lend)"/><path style="fill:none;stroke:#000;stroke-width:2;stroke-linecap:butt;stroke-linejoin:miter;stroke-miterlimit:4;stroke-opacity:1;stroke-dasharray:none;marker-end:none" id="path3872" d="m 118.69292,84.636044 c 1.51523,0 16.66752,-5.555839 16.66752,-5.555839"/></g></g><g id="g3874" transform="translate(76.72116,77.19545)"><rect id="rect3876" width="63.072" height="26.078" x="198.274" y="49.879" style="fill:#fff;fill-opacity:1;fill-rule:nonzero;stroke:#000;stroke-width:2;stroke-linecap:butt;stroke-linejoin:miter;stroke-miterlimit:4;stroke-opacity:1;stroke-dasharray:none;stroke-dashoffset:0"/><g id="g3878" transform="translate(81.77797,-23.36376)"><path style="fill:none;stroke:#000;stroke-width:.71200001;stroke-linecap:butt;stroke-linejoin:miter;stroke-miterlimit:4;stroke-opacity:1;stroke-dasharray:none;marker-end:url(#Arrow2Lend)" id="path3880" d="m 118.69292,84.636044 c 1.51523,0 16.66752,-5.555839 16.66752,-5.555839"/><path id="path3882" d="m 118.69292,84.636044 c 1.51523,0 16.66752,-5.555839 16.66752,-5.555839" style="fill:none;stroke:#000;stroke-width:2;stroke-linecap:butt;stroke-linejoin:miter;stroke-miterlimit:4;stroke-opacity:1;stroke-dasharray:none;marker-end:none"/></g><g id="g3884" transform="matrix(0.88433,0.573686,-0.544236,0.838932,148.0924,-72.44582)"><path style="fill:none;stroke:#000;stroke-width:.71200001;stroke-linecap:butt;stroke-linejoin:miter;stroke-miterlimit:4;stroke-opacity:1;stroke-dasharray:none;marker-end:url(#Arrow2Lend)" id="path3886" d="m 118.69292,84.636044 c 1.51523,0 16.66752,-5.555839 16.66752,-5.555839"/><path id="path3888" d="m 118.69292,84.636044 c 1.51523,0 16.66752,-5.555839 16.66752,-5.555839" style="fill:none;stroke:#000;stroke-width:2;stroke-linecap:butt;stroke-linejoin:miter;stroke-miterlimit:4;stroke-opacity:1;stroke-dasharray:none;marker-end:none"/></g><g id="g3890" transform="matrix(0.950884,0.454945,-0.431591,0.902069,143.5493,-70.61212)"><path style="fill:none;stroke:#000;stroke-width:.71200001;stroke-linecap:butt;stroke-linejoin:miter;stroke-miterlimit:4;stroke-opacity:1;stroke-dasharray:none;marker-end:url(#Arrow2Lend)" id="path3892" d="m 118.69292,84.636044 c 1.51523,0 16.66752,-5.555839 16.66752,-5.555839"/><path id="path3894" d="m 118.69292,84.636044 c 1.51523,0 16.66752,-5.555839 16.66752,-5.555839" style="fill:none;stroke:#000;stroke-width:2;stroke-linecap:butt;stroke-linejoin:miter;stroke-miterlimit:4;stroke-opacity:1;stroke-dasharray:none;marker-end:none"/></g><g id="g3896" transform="matrix(1.027431,0.235669,-0.223572,0.974687,126.8992,-41.12643)"><path style="fill:none;stroke:#000;stroke-width:.71200001;stroke-linecap:butt;stroke-linejoin:miter;stroke-miterlimit:4;stroke-opacity:1;stroke-dasharray:none;marker-end:url(#Arrow2Lend)" id="path3898" d="m 118.69292,84.636044 c 1.51523,0 16.66752,-5.555839 16.66752,-5.555839"/><path id="path3900" d="m 118.69292,84.636044 c 1.51523,0 16.66752,-5.555839 16.66752,-5.555839" style="fill:none;stroke:#000;stroke-width:2;stroke-linecap:butt;stroke-linejoin:miter;stroke-miterlimit:4;stroke-opacity:1;stroke-dasharray:none;marker-end:none"/></g><g id="g3902" transform="matrix(1.039904,0.172494,-0.16364,0.98652,125.4597,-46.19204)"><path style="fill:none;stroke:#000;stroke-width:.71200001;stroke-linecap:butt;stroke-linejoin:miter;stroke-miterlimit:4;stroke-opacity:1;stroke-dasharray:none;marker-end:url(#Arrow2Lend)" id="path3904" d="m 118.69292,84.636044 c 1.51523,0 16.66752,-5.555839 16.66752,-5.555839"/><path id="path3906" d="m 118.69292,84.636044 c 1.51523,0 16.66752,-5.555839 16.66752,-5.555839" style="fill:none;stroke:#000;stroke-width:2;stroke-linecap:butt;stroke-linejoin:miter;stroke-miterlimit:4;stroke-opacity:1;stroke-dasharray:none;marker-end:none"/></g></g><g id="g3940" transform="matrix(-1,0,0,-1,599.1977,203.031)"><rect style="fill:#fff;fill-opacity:1;fill-rule:nonzero;stroke:#000;stroke-width:2;stroke-linecap:butt;stroke-linejoin:miter;stroke-miterlimit:4;stroke-opacity:1;stroke-dasharray:none;stroke-dashoffset:0" id="rect3942" width="63.072" height="26.078" x="198.274" y="49.879"/><g id="g3944" transform="translate(81.77797,-23.36376)"><path id="path3946" d="m 118.69292,84.636044 c 1.51523,0 16.66752,-5.555839 16.66752,-5.555839" style="fill:none;stroke:#000;stroke-width:.71200001;stroke-linecap:butt;stroke-linejoin:miter;stroke-miterlimit:4;stroke-opacity:1;stroke-dasharray:none;marker-end:url(#Arrow2Lend)"/><path style="fill:none;stroke:#000;stroke-width:2;stroke-linecap:butt;stroke-linejoin:miter;stroke-miterlimit:4;stroke-opacity:1;stroke-dasharray:none;marker-end:none" id="path3948" d="m 118.69292,84.636044 c 1.51523,0 16.66752,-5.555839 16.66752,-5.555839"/></g><g id="g3950" transform="matrix(0.88433,0.573686,-0.544236,0.838932,148.0924,-72.44582)"><path id="path3952" d="m 118.69292,84.636044 c 1.51523,0 16.66752,-5.555839 16.66752,-5.555839" style="fill:none;stroke:#000;stroke-width:.71200001;stroke-linecap:butt;stroke-linejoin:miter;stroke-miterlimit:4;stroke-opacity:1;stroke-dasharray:none;marker-end:url(#Arrow2Lend)"/><path style="fill:none;stroke:#000;stroke-width:2;stroke-linecap:butt;stroke-linejoin:miter;stroke-miterlimit:4;stroke-opacity:1;stroke-dasharray:none;marker-end:none" id="path3954" d="m 118.69292,84.636044 c 1.51523,0 16.66752,-5.555839 16.66752,-5.555839"/></g><g id="g3956" transform="matrix(0.950884,0.454945,-0.431591,0.902069,143.5493,-70.61212)"><path id="path3958" d="m 118.69292,84.636044 c 1.51523,0 16.66752,-5.555839 16.66752,-5.555839" style="fill:none;stroke:#000;stroke-width:.71200001;stroke-linecap:butt;stroke-linejoin:miter;stroke-miterlimit:4;stroke-opacity:1;stroke-dasharray:none;marker-end:url(#Arrow2Lend)"/><path style="fill:none;stroke:#000;stroke-width:2;stroke-linecap:butt;stroke-linejoin:miter;stroke-miterlimit:4;stroke-opacity:1;stroke-dasharray:none;marker-end:none" id="path3960" d="m 118.69292,84.636044 c 1.51523,0 16.66752,-5.555839 16.66752,-5.555839"/></g><g id="g3962" transform="matrix(1.027431,0.235669,-0.223572,0.974687,126.8992,-41.12643)"><path id="path3964" d="m 118.69292,84.636044 c 1.51523,0 16.66752,-5.555839 16.66752,-5.555839" style="fill:none;stroke:#000;stroke-width:.71200001;stroke-linecap:butt;stroke-linejoin:miter;stroke-miterlimit:4;stroke-opacity:1;stroke-dasharray:none;marker-end:url(#Arrow2Lend)"/><path style="fill:none;stroke:#000;stroke-width:2;stroke-linecap:butt;stroke-linejoin:miter;stroke-miterlimit:4;stroke-opacity:1;stroke-dasharray:none;marker-end:none" id="path3966" d="m 118.69292,84.636044 c 1.51523,0 16.66752,-5.555839 16.66752,-5.555839"/></g><g id="g3968" transform="matrix(1.039904,0.172494,-0.16364,0.98652,125.4597,-46.19204)"><path id="path3970" d="m 118.69292,84.636044 c 1.51523,0 16.66752,-5.555839 16.66752,-5.555839" style="fill:none;stroke:#000;stroke-width:.71200001;stroke-linecap:butt;stroke-linejoin:miter;stroke-miterlimit:4;stroke-opacity:1;stroke-dasharray:none;marker-end:url(#Arrow2Lend)"/><path style="fill:none;stroke:#000;stroke-width:2;stroke-linecap:butt;stroke-linejoin:miter;stroke-miterlimit:4;stroke-opacity:1;stroke-dasharray:none;marker-end:none" id="path3972" d="m 118.69292,84.636044 c 1.51523,0 16.66752,-5.555839 16.66752,-5.555839"/></g></g></g><g id="g3316"><path id="path11257" d="m 183.78128,133.16038 c 3.52557,5.56954 5.17726,12.12074 4.71364,18.69603" transform="translate(-39.70106,-23.12347)" style="fill:none;stroke:#000;stroke-width:1;stroke-linecap:butt;stroke-linejoin:miter;stroke-miterlimit:4;stroke-opacity:1;stroke-dasharray:none;stroke-dashoffset:0"/><path style="fill:#fff;fill-opacity:1;fill-rule:nonzero;stroke:#000;stroke-width:1.19868577;stroke-linecap:butt;stroke-linejoin:miter;stroke-miterlimit:4;stroke-opacity:1;stroke-dasharray:none;stroke-dashoffset:0" id="path11259" d="m 181.9353,130.55301 c 4.7615,6.03737 7.10042,13.63339 6.55962,21.3034" transform="matrix(1,0,0,0.695968,-39.70106,23.19774)"/><path id="path11261" d="m 180.05021,128.37919 c 5.99039,6.29046 9.05567,14.81227 8.44471,23.47722" transform="matrix(1,0,0,0.435391,-39.70106,62.92415)" style="fill:#fff;fill-opacity:1;fill-rule:nonzero;stroke:#000;stroke-width:1.51551509;stroke-linecap:butt;stroke-linejoin:miter;stroke-miterlimit:4;stroke-opacity:1;stroke-dasharray:none;stroke-dashoffset:0"/></g><g id="g3324"><path style="fill:none;stroke:#000;stroke-width:1;stroke-linecap:butt;stroke-linejoin:miter;stroke-miterlimit:4;stroke-opacity:1;stroke-dasharray:none;stroke-dashoffset:0" id="path12039" d="m 183.78128,133.16038 c 3.52557,5.56954 5.17726,12.12074 4.71364,18.69603" transform="matrix(1,0,0,-1,-40.41535,305.2457)"/><path id="path12041" d="m 181.9353,130.55301 c 4.7615,6.03737 7.10042,13.63339 6.55962,21.3034" transform="matrix(1,0,0,-0.695968,-40.41535,258.9245)" style="fill:#fff;fill-opacity:1;fill-rule:nonzero;stroke:#000;stroke-width:1.19868577;stroke-linecap:butt;stroke-linejoin:miter;stroke-miterlimit:4;stroke-opacity:1;stroke-dasharray:none;stroke-dashoffset:0"/><path style="fill:#fff;fill-opacity:1;fill-rule:nonzero;stroke:#000;stroke-width:1.51551509;stroke-linecap:butt;stroke-linejoin:miter;stroke-miterlimit:4;stroke-opacity:1;stroke-dasharray:none;stroke-dashoffset:0" id="path12043" d="m 180.05021,128.37919 c 5.99039,6.29046 9.05567,14.81227 8.44471,23.47722" transform="matrix(1,0,0,-0.435391,-40.41535,219.1981)"/></g><g id="g3332"><path id="path12047" d="m 183.78128,133.16038 c 3.52557,5.56954 5.17726,12.12074 4.71364,18.69603" transform="matrix(-1,0,0,-1,527.6735,305.6028)" style="fill:none;stroke:#000;stroke-width:1;stroke-linecap:butt;stroke-linejoin:miter;stroke-miterlimit:4;stroke-opacity:1;stroke-dasharray:none;stroke-dashoffset:0"/><path style="fill:#fff;fill-opacity:1;fill-rule:nonzero;stroke:#000;stroke-width:1.19868577;stroke-linecap:butt;stroke-linejoin:miter;stroke-miterlimit:4;stroke-opacity:1;stroke-dasharray:none;stroke-dashoffset:0" id="path12049" d="m 181.9353,130.55301 c 4.7615,6.03737 7.10042,13.63339 6.55962,21.3034" transform="matrix(-1,0,0,-0.695968,527.6735,259.2816)"/><path id="path12051" d="m 180.05021,128.37919 c 5.99039,6.29046 9.05567,14.81227 8.44471,23.47722" transform="matrix(-1,0,0,-0.435391,527.6735,219.5552)" style="fill:#fff;fill-opacity:1;fill-rule:nonzero;stroke:#000;stroke-width:1.51551509;stroke-linecap:butt;stroke-linejoin:miter;stroke-miterlimit:4;stroke-opacity:1;stroke-dasharray:none;stroke-dashoffset:0"/></g><path id="path12055" d="m 183.78128,133.16038 c 3.52557,5.56954 5.17726,12.12074 4.71364,18.69603" transform="matrix(-1,0,0,1,526.9592,-24.19493)" style="fill:none;stroke:#000;stroke-width:1;stroke-linecap:butt;stroke-linejoin:miter;stroke-miterlimit:4;stroke-opacity:1;stroke-dasharray:none;stroke-dashoffset:0"/><path style="fill:#fff;fill-opacity:1;fill-rule:nonzero;stroke:#000;stroke-width:1.19868577;stroke-linecap:butt;stroke-linejoin:miter;stroke-miterlimit:4;stroke-opacity:1;stroke-dasharray:none;stroke-dashoffset:0" id="path12057" d="m 181.9353,130.55301 c 4.7615,6.03737 7.10042,13.63339 6.55962,21.3034" transform="matrix(-1,0,0,0.695968,526.9592,22.12628)"/><path id="path12059" d="m 180.05021,128.37919 c 5.99039,6.29046 9.05567,14.81227 8.44471,23.47722" transform="matrix(-1,0,0,0.435391,526.9592,61.85269)" style="fill:#fff;fill-opacity:1;fill-rule:nonzero;stroke:#000;stroke-width:1.51551509;stroke-linecap:butt;stroke-linejoin:miter;stroke-miterlimit:4;stroke-opacity:1;stroke-dasharray:none;stroke-dashoffset:0"/><path style="color:#000;fill:none;stroke:#000;stroke-width:1;stroke-linecap:butt;stroke-linejoin:miter;stroke-miterlimit:4;stroke-opacity:1;stroke-dasharray:none;stroke-dashoffset:0;marker:none;marker-end:url(#Arrow2Lend);visibility:visible;display:block" id="path12854" d="M 408.77521,178.17908 390.57143,152.1479"/><text style="font-size:144px;font-style:normal;font-variant:normal;font-weight:400;font-stretch:normal;line-height:125%;writing-mode:lr-tb;text-anchor:start;fill:#000;fill-opacity:1;stroke:none;font-family:Cursor" id="text12856" x="406.117" y="187.909" xml:space="preserve"><tspan id="tspan12858" x="406.117" y="187.909" style="font-size:10px;font-style:normal;font-variant:normal;font-weight:400;font-stretch:normal;text-align:start;line-height:125%;writing-mode:lr-tb;text-anchor:start;font-family:Cursor">grain</tspan></text><path style="fill:none;stroke:#000;stroke-width:1;stroke-linecap:butt;stroke-linejoin:miter;stroke-miterlimit:4;stroke-opacity:1;stroke-dasharray:none;marker-end:url(#Arrow2Lend)" id="path12860" d="m 351.64286,88.933609 -8.21429,25.000001"/><text style="font-size:144px;font-style:normal;font-variant:normal;font-weight:400;font-stretch:normal;line-height:125%;writing-mode:lr-tb;text-anchor:start;fill:#000;fill-opacity:1;stroke:none;font-family:Cursor" id="text14376" x="331.643" y="73.934" xml:space="preserve"><tspan id="tspan14378" x="331.643" y="73.934" style="font-size:10px;font-style:normal;font-variant:normal;font-weight:400;font-stretch:normal;text-align:start;line-height:125%;writing-mode:lr-tb;text-anchor:start;font-family:Cursor">strong field and field reversal</tspan><tspan style="font-size:10px;font-style:normal;font-variant:normal;font-weight:400;font-stretch:normal;text-align:start;line-height:125%;writing-mode:lr-tb;text-anchor:start;font-family:Cursor" id="tspan5006" x="331.643" y="86.434">near boundary</tspan></text><rect style="fill:none;stroke:#000;stroke-width:2;stroke-linecap:butt;stroke-linejoin:miter;stroke-miterlimit:4;stroke-opacity:1;stroke-dasharray:none;stroke-dashoffset:0" id="rect14380" width="66.904" height="71.589" x="31.806" y="47.498"/><rect style="fill:none;stroke:#000;stroke-width:2;stroke-linecap:butt;stroke-linejoin:miter;stroke-miterlimit:4;stroke-opacity:1;stroke-dasharray:none;stroke-dashoffset:0" id="rect14382" width="29.438" height="70.005" x="108.88" y="47.498"/><rect style="fill:none;stroke:#000;stroke-width:2;stroke-linecap:butt;stroke-linejoin:miter;stroke-miterlimit:4;stroke-opacity:1;stroke-dasharray:none;stroke-dashoffset:0" id="rect14384" width="10.169" height="28.192" x="98.711" y="47.498"/><text style="font-size:144px;font-style:normal;font-variant:normal;font-weight:400;font-stretch:normal;line-height:125%;writing-mode:lr-tb;text-anchor:start;fill:#000;fill-opacity:1;stroke:none;font-family:Cursor" id="text14386" x="38.303" y="71.656" xml:space="preserve"><tspan id="tspan14388" x="38.303" y="71.656" style="font-size:10px;font-style:normal;font-variant:normal;font-weight:400;font-stretch:normal;text-align:start;line-height:125%;writing-mode:lr-tb;text-anchor:start;font-family:Cursor">read head</tspan></text><path style="color:#000;fill:none;stroke:#000;stroke-width:1;stroke-linecap:butt;stroke-linejoin:miter;stroke-miterlimit:4;stroke-opacity:1;stroke-dasharray:none;stroke-dashoffset:0;marker:none;marker-end:url(#Arrow2Lend);visibility:visible;display:block" id="path15146" d="m 132.5613,75.933355 18.66679,-0.272292"/><path style="fill:none;stroke:#000;stroke-width:1;stroke-linecap:butt;stroke-linejoin:miter;stroke-miterlimit:4;stroke-opacity:1;stroke-dasharray:none" id="path15148" d="M 86.368043,160.39748 80.812204,187.6716 146.9772,156.86195"/><text style="font-size:144px;font-style:normal;font-variant:normal;font-weight:400;font-stretch:normal;line-height:125%;writing-mode:lr-tb;text-anchor:start;fill:#000;fill-opacity:1;stroke:none;font-family:Cursor" id="text15906" x="33.254" y="198.007" xml:space="preserve"><tspan id="tspan15908" x="33.254" y="198.007" style="font-size:10px;font-style:normal;font-variant:normal;font-weight:400;font-stretch:normal;text-align:start;line-height:125%;writing-mode:lr-tb;text-anchor:start;font-family:Cursor">magnetic region</tspan></text><path style="fill:none;stroke:#000;stroke-width:1;stroke-linecap:butt;stroke-linejoin:miter;stroke-miterlimit:4;stroke-opacity:1;stroke-dasharray:none" id="path15910" d="m 148.28321,153.97943 0,68.04787"/><text style="font-size:144px;font-style:normal;font-variant:normal;font-weight:400;font-stretch:normal;line-height:125%;writing-mode:lr-tb;text-anchor:start;fill:#000;fill-opacity:1;stroke:none;font-family:Cursor" id="text15920" x="144.469" y="232.127" xml:space="preserve"><tspan id="tspan15922" x="144.469" y="232.127" style="font-size:10px;font-style:normal;font-variant:normal;font-weight:400;font-stretch:normal;text-align:start;line-height:125%;writing-mode:lr-tb;text-anchor:start;font-family:Cursor">R</tspan></text><text style="font-size:144px;font-style:normal;font-variant:normal;font-weight:400;font-stretch:normal;line-height:125%;writing-mode:lr-tb;text-anchor:start;fill:#000;fill-opacity:1;stroke:none;font-family:Cursor" id="text15924" x="207.792" y="231.733" xml:space="preserve"><tspan id="tspan15926" x="207.792" y="231.733" style="font-size:10px;font-style:normal;font-variant:normal;font-weight:400;font-stretch:normal;text-align:start;line-height:125%;writing-mode:lr-tb;text-anchor:start;font-family:Cursor">R</tspan></text><text style="font-size:144px;font-style:normal;font-variant:normal;font-weight:400;font-stretch:normal;line-height:125%;writing-mode:lr-tb;text-anchor:start;fill:#000;fill-opacity:1;stroke:none;font-family:Cursor" id="text15928" x="334.566" y="229.651" xml:space="preserve"><tspan id="tspan15930" x="334.566" y="229.651" style="font-size:10px;font-style:normal;font-variant:normal;font-weight:400;font-stretch:normal;text-align:start;line-height:125%;writing-mode:lr-tb;text-anchor:start;font-family:Cursor">R</tspan></text><text style="font-size:144px;font-style:normal;font-variant:normal;font-weight:400;font-stretch:normal;line-height:125%;writing-mode:lr-tb;text-anchor:start;fill:#000;fill-opacity:1;stroke:none;font-family:Cursor" id="text15932" x="270.212" y="231.585" xml:space="preserve"><tspan id="tspan15934" x="270.212" y="231.585" style="font-size:10px;font-style:normal;font-variant:normal;font-weight:400;font-stretch:normal;text-align:start;line-height:125%;writing-mode:lr-tb;text-anchor:start;font-family:Cursor">N</tspan></text><text style="font-size:144px;font-style:normal;font-variant:normal;font-weight:400;font-stretch:normal;line-height:125%;writing-mode:lr-tb;text-anchor:start;fill:#000;fill-opacity:1;stroke:none;font-family:Cursor" id="text15936" x="60.122" y="235.342" xml:space="preserve"><tspan id="tspan15938" x="60.122" y="235.342" style="font-size:10px;font-style:normal;font-variant:normal;font-weight:400;font-stretch:normal;text-align:start;line-height:125%;writing-mode:lr-tb;text-anchor:start;font-family:Cursor">State:</tspan></text><text style="font-size:144px;font-style:normal;font-variant:normal;font-weight:400;font-stretch:normal;line-height:125%;writing-mode:lr-tb;text-anchor:start;fill:#000;fill-opacity:1;stroke:none;font-family:Cursor" id="text15940" x="269.223" y="46.989" xml:space="preserve"><tspan id="tspan15942" x="269.223" y="46.989" style="font-size:10px;font-style:normal;font-variant:normal;font-weight:400;font-stretch:normal;text-align:start;line-height:125%;writing-mode:lr-tb;text-anchor:start;font-family:Cursor">Magnetic Field lines</tspan></text><path style="fill:none;stroke:#000;stroke-width:1;stroke-linecap:butt;stroke-linejoin:miter;stroke-miterlimit:4;stroke-opacity:1;stroke-dasharray:none;marker-end:url(#Arrow2Lend)" id="path15944" d="m 302.60723,47.892383 -1.6483,10.857865"/><text style="font-size:144px;font-style:normal;font-variant:normal;font-weight:400;font-stretch:normal;line-height:125%;writing-mode:lr-tb;text-anchor:start;fill:#000;fill-opacity:1;stroke:none;font-family:Cursor" id="text1642" x="24.723" y="253.396" xml:space="preserve"><tspan id="tspan1644" x="24.723" y="253.396" style="font-size:10px;font-style:normal;font-variant:normal;font-weight:400;font-stretch:normal;text-align:start;line-height:125%;writing-mode:lr-tb;text-anchor:start;font-family:Cursor">Binary Value Encoded:</tspan></text><text style="font-size:144px;font-style:normal;font-variant:normal;font-weight:400;font-stretch:normal;line-height:125%;writing-mode:lr-tb;text-anchor:start;fill:#000;fill-opacity:1;stroke:none;font-family:Cursor" id="text1646" x="177.384" y="252.538" xml:space="preserve"><tspan id="tspan1648" x="177.384" y="252.538" style="font-size:10px;font-style:normal;font-variant:normal;font-weight:400;font-stretch:normal;text-align:start;line-height:125%;writing-mode:lr-tb;text-anchor:start;font-family:Cursor">1</tspan></text><text style="font-size:144px;font-style:normal;font-variant:normal;font-weight:400;font-stretch:normal;line-height:125%;writing-mode:lr-tb;text-anchor:start;fill:#000;fill-opacity:1;stroke:none;font-family:Cursor" id="text1650" x="302.641" y="251.11" xml:space="preserve"><tspan id="tspan1652" x="302.641" y="251.11" style="font-size:10px;font-style:normal;font-variant:normal;font-weight:400;font-stretch:normal;text-align:start;line-height:125%;writing-mode:lr-tb;text-anchor:start;font-family:Cursor">0</tspan></text><g id="g4984" transform="matrix(1.771613,0,0,0.99889,-218.421,-97.9474)"><path id="path4980" d="m 205,332.36218 c 0,0 0,4 10,4 10,0 10,5 10,5 l 0,0 0,0" style="fill:none;stroke:#000;stroke-width:.25pt;stroke-linecap:butt;stroke-linejoin:miter;stroke-opacity:1"/><path id="path4982" d="m 244.99841,332.30063 c 0,0 0,4 -10,4 -10,0 -10,5 -10,5 l 0,0 0,0" style="fill:none;stroke:#000;stroke-width:.25pt;stroke-linecap:butt;stroke-linejoin:miter;stroke-opacity:1"/></g><g id="g4994" transform="matrix(1.771613,0,0,0.99889,-93.04037,-99.3291)"><path id="path4996" d="m 205,332.36218 c 0,0 0,4 10,4 10,0 10,5 10,5 l 0,0 0,0" style="fill:none;stroke:#000;stroke-width:.25pt;stroke-linecap:butt;stroke-linejoin:miter;stroke-opacity:1"/><path id="path4998" d="m 244.99841,332.30063 c 0,0 0,4 -10,4 -10,0 -10,5 -10,5 l 0,0 0,0" style="fill:none;stroke:#000;stroke-width:.25pt;stroke-linecap:butt;stroke-linejoin:miter;stroke-opacity:1"/></g><text style="font-size:144px;font-style:normal;font-variant:normal;font-weight:400;font-stretch:normal;line-height:125%;writing-mode:lr-tb;text-anchor:start;fill:#000;fill-opacity:1;stroke:none;font-family:Cursor" id="text5000" x="359.084" y="222.081" xml:space="preserve"><tspan id="tspan5002" x="359.084" y="222.081" style="font-size:10px;font-style:normal;font-variant:normal;font-weight:400;font-stretch:normal;text-align:start;line-height:125%;writing-mode:lr-tb;text-anchor:start;font-family:Cursor">R = reverse</tspan><tspan style="font-size:10px;font-style:normal;font-variant:normal;font-weight:400;font-stretch:normal;text-align:start;line-height:125%;writing-mode:lr-tb;text-anchor:start;font-family:Cursor" id="tspan5004" x="359.084" y="234.581">N = no reverse</tspan></text><path style="fill:none;stroke:#000;stroke-width:1;stroke-linecap:butt;stroke-linejoin:miter;stroke-miterlimit:4;stroke-opacity:1;stroke-dasharray:none" id="path5008" d="m 211.42857,153.33825 0,68.04787"/><path style="fill:none;stroke:#000;stroke-width:1;stroke-linecap:butt;stroke-linejoin:miter;stroke-miterlimit:4;stroke-opacity:1;stroke-dasharray:none" id="path5010" d="m 275,154.05254 0,68.04787"/><path style="fill:none;stroke:#000;stroke-width:1;stroke-linecap:butt;stroke-linejoin:miter;stroke-miterlimit:4;stroke-opacity:1;stroke-dasharray:none" id="path5012" d="m 337.85714,152.26682 0,68.04787"/></g></svg>